<svg xmlns="http://www.w3.org/2000/svg" aria-hidden="true" style="position:absolute;width:0;height:0;overflow:hidden">
  <defs>
    <symbol id="icon-menu" viewBox="0 0 32 32">
      <path fill="#fff" d="M4.885 25.143c-.305 0-.56-.117-.766-.35s-.309-.523-.309-.867c0-.345.103-.634.309-.867s.462-.349.766-.349h22.23c.305 0 .56.117.766.35s.309.523.309.867c0 .345-.103.634-.309.867s-.462.349-.766.349H4.885zm0-7.926c-.305 0-.56-.117-.766-.35S3.81 16.344 3.81 16c0-.345.103-.634.309-.867s.462-.35.766-.35h22.23c.305 0 .56.117.766.35s.309.523.309.867c0 .345-.103.634-.309.867s-.462.349-.766.349H4.885zm0-7.926c-.305 0-.56-.117-.766-.35s-.309-.522-.309-.867.103-.634.309-.867.462-.35.766-.35h22.23c.305 0 .56.117.766.35s.309.522.309.867-.103.634-.309.867-.462.35-.766.35H4.885z" style="fill:var(--color1, #fff)"/>
    </symbol>
    <symbol id="icon-minus" viewBox="0 0 32 32">
      <path fill="#fff" d="M23.894 17.316H8.106c-.724 0-1.316-.592-1.316-1.316s.592-1.316 1.316-1.316h15.788c.724 0 1.316.592 1.316 1.316s-.592 1.316-1.316 1.316z" style="fill:var(--color1, #fff)"/>
    </symbol>
    <symbol id="icon-plus" viewBox="0 0 32 32">
      <path fill="#fff" d="M23.894 17.316h-6.578v6.578c0 .724-.592 1.316-1.316 1.316s-1.316-.592-1.316-1.316v-6.578H8.106c-.724 0-1.316-.592-1.316-1.316s.592-1.316 1.316-1.316h6.578V8.106c0-.724.592-1.316 1.316-1.316s1.316.592 1.316 1.316v6.578h6.578c.724 0 1.316.592 1.316 1.316s-.592 1.316-1.316 1.316z" style="fill:var(--color1, #fff)"/>
    </symbol>
    <symbol id="icon-close" viewBox="0 0 32 32">
      <path fill="#fff" d="m8.534 25.333-1.867-1.867 7.467-7.467-7.467-7.467 1.867-1.867 7.467 7.467 7.467-7.467 1.867 1.867-7.467 7.467 7.467 7.467-1.867 1.867-7.467-7.467-7.467 7.467z" style="fill:var(--color1, #fff)"/>
    </symbol>
    <symbol id="icon-left-arrow" viewBox="0 0 32 32">
      <path d="M5.90791 17.096L23.2412 29.096C23.4413 29.2344 23.6754 29.3154 23.9182 29.3304C24.1609 29.3453 24.4032 29.2935 24.6187 29.1806C24.8341 29.0677 25.0146 28.898 25.1406 28.6899C25.2665 28.4818 25.3332 28.2432 25.3332 28V3.99999C25.3334 3.75662 25.267 3.51786 25.1411 3.30956C25.0152 3.10127 24.8348 2.9314 24.6193 2.81835C24.4037 2.7053 24.1614 2.6534 23.9185 2.66826C23.6756 2.68312 23.4414 2.76418 23.2412 2.90266L5.90791 14.9027C5.73132 15.0259 5.5871 15.19 5.48752 15.3809C5.38794 15.5718 5.33594 15.784 5.33594 15.9993C5.33594 16.2147 5.38794 16.4268 5.48752 16.6178C5.5871 16.8087 5.73132 16.9727 5.90791 17.096Z" fill="white"/>
    </symbol>
    <symbol id="icon-right-arrow" viewBox="0 0 32 32">
      <path d="M26.0921 17.096L8.75876 29.096C8.55873 29.2344 8.32464 29.3154 8.08184 29.3304C7.83905 29.3453 7.5968 29.2935 7.38133 29.1806C7.16586 29.0677 6.98538 28.898 6.85942 28.6899C6.73347 28.4818 6.66684 28.2432 6.66676 28V3.99999C6.6666 3.75662 6.73305 3.51786 6.8589 3.30956C6.98476 3.10127 7.16523 2.9314 7.38074 2.81835C7.59626 2.7053 7.8386 2.6534 8.08151 2.66826C8.32442 2.68312 8.55863 2.76418 8.75876 2.90266L26.0921 14.9027C26.2687 15.0259 26.4129 15.19 26.5125 15.3809C26.6121 15.5718 26.6641 15.784 26.6641 15.9993C26.6641 16.2147 26.6121 16.4268 26.5125 16.6178C26.4129 16.8087 26.2687 16.9727 26.0921 17.096Z" fill="white"/>
    </symbol>
  </defs>
</svg>
